# This file uses centimeters as units for non-parametric coordinates.

v 0.809017 -0.521020 -0.587785
v 0.309017 -0.521020 -0.951057
v -0.309017 -0.521020 -0.951057
v -0.809017 -0.521020 -0.587785
v -1.000000 -0.521020 0.000000
v -0.809017 -0.521020 0.587785
v -0.309017 -0.521020 0.951057
v 0.309017 -0.521020 0.951057
v 0.809017 -0.521020 0.587785
v 1.000000 -0.521020 0.000000
v 0.137031 10.458635 -0.099559
v 0.052341 10.458635 -0.161090
v -0.052341 10.458635 -0.161090
v -0.137031 10.458635 -0.099559
v -0.169380 10.458635 -0.000000
v -0.137031 10.458635 0.099559
v -0.052341 10.458635 0.161090
v 0.052341 10.458635 0.161090
v 0.137031 10.458635 0.099559
v 0.169380 10.458635 -0.000000
v 0.000000 -0.521020 0.000000
v -0.000000 10.592908 -0.000000
v 0.473024 4.968807 -0.343672
v 0.180679 4.968807 -0.556073
v -0.180679 4.968807 -0.556073
v -0.473024 4.968807 -0.343672
v -0.584690 4.968807 0.000000
v -0.473024 4.968807 0.343672
v -0.180679 4.968807 0.556073
v 0.180679 4.968807 0.556073
v 0.473024 4.968807 0.343672
v 0.584690 4.968807 -0.000000
v 0.305027 7.713721 -0.221616
v 0.377035 7.713721 -0.000000
v 0.305027 7.713721 0.221616
v 0.116510 7.713721 0.358581
v -0.116510 7.713721 0.358581
v -0.305028 7.713721 0.221616
v -0.377035 7.713721 -0.000000
v -0.305028 7.713721 -0.221616
v -0.116510 7.713721 -0.358581
v 0.116510 7.713721 -0.358581
v 0.641021 2.223894 -0.465729
v 0.244848 2.223894 -0.753565
v -0.244848 2.223894 -0.753565
v -0.641021 2.223894 -0.465729
v -0.792345 2.223894 0.000000
v -0.641021 2.223894 0.465729
v -0.244848 2.223894 0.753565
v 0.244848 2.223894 0.753565
v 0.641020 2.223894 0.465729
v 0.792345 2.223894 -0.000000
v 0.725019 0.851437 -0.526757
v 0.276932 0.851437 -0.852311
v -0.276933 0.851437 -0.852311
v -0.725019 0.851437 -0.526757
v -0.896173 0.851437 0.000000
v -0.725019 0.851437 0.526757
v -0.276933 0.851437 0.852311
v 0.276933 0.851437 0.852311
v 0.725019 0.851437 0.526757
v 0.896172 0.851437 -0.000000
v 0.557022 3.596351 -0.404701
v 0.688517 3.596351 -0.000000
v 0.557022 3.596351 0.404700
v 0.212764 3.596351 0.654819
v -0.212764 3.596351 0.654819
v -0.557022 3.596351 0.404701
v -0.688518 3.596351 0.000000
v -0.557022 3.596351 -0.404701
v -0.212764 3.596351 -0.654819
v 0.212764 3.596351 -0.654819
v 0.389026 6.341264 -0.282644
v 0.148595 6.341264 -0.457327
v -0.148595 6.341264 -0.457327
v -0.389026 6.341264 -0.282644
v -0.480862 6.341264 -0.000000
v -0.389026 6.341264 0.282644
v -0.148595 6.341264 0.457327
v 0.148595 6.341264 0.457327
v 0.389026 6.341264 0.282644
v 0.480862 6.341264 -0.000000
v 0.221029 9.086178 -0.160588
v 0.273207 9.086178 -0.000000
v 0.221029 9.086178 0.160587
v 0.084426 9.086178 0.259835
v -0.084426 9.086178 0.259835
v -0.221029 9.086178 0.160587
v -0.273207 9.086178 -0.000000
v -0.221029 9.086178 -0.160588
v -0.084426 9.086178 -0.259836
v 0.084426 9.086178 -0.259836
vt 0.626409 0.064409
vt 0.548284 0.007647
vt 0.451716 0.007647
vt 0.373591 0.064409
vt 0.343750 0.156250
vt 0.373591 0.248091
vt 0.451716 0.304853
vt 0.548284 0.304853
vt 0.626409 0.248091
vt 0.656250 0.156250
vt 0.375000 0.312500
vt 0.400000 0.312500
vt 0.425000 0.312500
vt 0.450000 0.312500
vt 0.475000 0.312500
vt 0.500000 0.312500
vt 0.525000 0.312500
vt 0.550000 0.312500
vt 0.575000 0.312500
vt 0.600000 0.312500
vt 0.625000 0.312500
vt 0.375000 0.688440
vt 0.400000 0.688440
vt 0.425000 0.688440
vt 0.450000 0.688440
vt 0.475000 0.688440
vt 0.500000 0.688440
vt 0.525000 0.688440
vt 0.550000 0.688440
vt 0.575000 0.688440
vt 0.600000 0.688440
vt 0.625000 0.688440
vt 0.626409 0.751909
vt 0.548284 0.695147
vt 0.451716 0.695147
vt 0.373591 0.751909
vt 0.343750 0.843750
vt 0.373591 0.935591
vt 0.451716 0.992353
vt 0.548284 0.992353
vt 0.626409 0.935591
vt 0.656250 0.843750
vt 0.500000 0.150000
vt 0.500000 0.837500
vt 0.625000 0.500470
vt 0.375000 0.500470
vt 0.400000 0.500470
vt 0.425000 0.500470
vt 0.450000 0.500470
vt 0.475000 0.500470
vt 0.500000 0.500470
vt 0.525000 0.500470
vt 0.550000 0.500470
vt 0.575000 0.500470
vt 0.600000 0.500470
vt 0.625000 0.594455
vt 0.375000 0.594455
vt 0.600000 0.594455
vt 0.575000 0.594455
vt 0.550000 0.594455
vt 0.525000 0.594455
vt 0.500000 0.594455
vt 0.475000 0.594455
vt 0.450000 0.594455
vt 0.425000 0.594455
vt 0.400000 0.594455
vt 0.625000 0.406485
vt 0.375000 0.406485
vt 0.400000 0.406485
vt 0.425000 0.406485
vt 0.450000 0.406485
vt 0.475000 0.406485
vt 0.500000 0.406485
vt 0.525000 0.406485
vt 0.550000 0.406485
vt 0.575000 0.406485
vt 0.600000 0.406485
vt 0.625000 0.359492
vt 0.375000 0.359492
vt 0.400000 0.359492
vt 0.425000 0.359492
vt 0.450000 0.359492
vt 0.475000 0.359492
vt 0.500000 0.359492
vt 0.525000 0.359492
vt 0.550000 0.359492
vt 0.575000 0.359492
vt 0.600000 0.359492
vt 0.625000 0.453477
vt 0.375000 0.453477
vt 0.600000 0.453477
vt 0.575000 0.453477
vt 0.550000 0.453477
vt 0.525000 0.453477
vt 0.500000 0.453477
vt 0.475000 0.453477
vt 0.450000 0.453477
vt 0.425000 0.453477
vt 0.400000 0.453477
vt 0.625000 0.547462
vt 0.375000 0.547462
vt 0.400000 0.547462
vt 0.425000 0.547462
vt 0.450000 0.547462
vt 0.475000 0.547462
vt 0.500000 0.547462
vt 0.525000 0.547462
vt 0.550000 0.547462
vt 0.575000 0.547462
vt 0.600000 0.547462
vt 0.625000 0.641447
vt 0.375000 0.641447
vt 0.600000 0.641447
vt 0.575000 0.641447
vt 0.550000 0.641447
vt 0.525000 0.641447
vt 0.500000 0.641447
vt 0.475000 0.641447
vt 0.450000 0.641447
vt 0.425000 0.641447
vt 0.400000 0.641447
vn 0.586269 0.071763 -0.806931
vn 0.586269 0.071763 -0.806931
vn 0.586269 0.071763 -0.806932
vn 0.586269 0.071763 -0.806932
vn 0.000000 0.071763 -0.997422
vn 0.000000 0.071763 -0.997422
vn 0.000000 0.071763 -0.997422
vn 0.000000 0.071763 -0.997422
vn -0.586270 0.071763 -0.806931
vn -0.586270 0.071763 -0.806931
vn -0.586269 0.071763 -0.806931
vn -0.586269 0.071763 -0.806931
vn -0.948604 0.071763 -0.308221
vn -0.948604 0.071763 -0.308221
vn -0.948604 0.071763 -0.308221
vn -0.948604 0.071763 -0.308221
vn -0.948604 0.071763 0.308221
vn -0.948604 0.071763 0.308221
vn -0.948604 0.071763 0.308221
vn -0.948604 0.071763 0.308221
vn -0.586269 0.071763 0.806931
vn -0.586269 0.071763 0.806931
vn -0.586269 0.071763 0.806932
vn -0.586269 0.071763 0.806932
vn 0.000000 0.071763 0.997422
vn 0.000000 0.071763 0.997422
vn 0.000000 0.071763 0.997422
vn 0.000000 0.071763 0.997422
vn 0.586270 0.071763 0.806931
vn 0.586270 0.071763 0.806931
vn 0.586269 0.071763 0.806931
vn 0.586269 0.071763 0.806931
vn 0.948604 0.071763 0.308221
vn 0.948604 0.071763 0.308221
vn 0.948604 0.071763 0.308221
vn 0.948604 0.071763 0.308221
vn 0.948604 0.071763 -0.308221
vn 0.948604 0.071763 -0.308220
vn 0.948604 0.071763 -0.308221
vn 0.948604 0.071763 -0.308221
vn 0.000000 -1.000000 0.000000
vn 0.000000 -1.000000 0.000000
vn 0.000000 -1.000000 -0.000000
vn 0.000000 -1.000000 0.000000
vn 0.000000 -1.000000 0.000000
vn 0.000000 -1.000000 0.000000
vn 0.000000 -1.000000 -0.000000
vn 0.000000 -1.000000 -0.000000
vn 0.000000 -1.000000 0.000000
vn 0.000000 -1.000000 0.000000
vn 0.000000 -1.000000 0.000000
vn 0.502575 0.783639 -0.365140
vn 0.191966 0.783640 -0.590811
vn 0.000000 1.000000 0.000000
vn -0.191966 0.783639 -0.590812
vn -0.502575 0.783639 -0.365142
vn -0.621217 0.783639 -0.000000
vn -0.502575 0.783638 0.365144
vn -0.191966 0.783638 0.590813
vn 0.191966 0.783640 0.590811
vn 0.502575 0.783639 0.365140
vn 0.621217 0.783639 0.000000
vn 0.586270 0.071763 -0.806931
vn 0.586270 0.071763 -0.806931
vn 0.586269 0.071763 -0.806931
vn 0.586270 0.071763 -0.806931
vn -0.000000 0.071763 -0.997422
vn -0.000000 0.071763 -0.997422
vn -0.000000 0.071763 -0.997422
vn -0.000000 0.071763 -0.997422
vn -0.586270 0.071763 -0.806931
vn -0.586270 0.071763 -0.806931
vn -0.586270 0.071763 -0.806931
vn -0.586270 0.071763 -0.806931
vn -0.948605 0.071763 -0.308220
vn -0.948605 0.071763 -0.308220
vn -0.948605 0.071763 -0.308220
vn -0.948604 0.071763 -0.308220
vn -0.948604 0.071763 0.308220
vn -0.948604 0.071763 0.308220
vn -0.948604 0.071763 0.308220
vn -0.948604 0.071763 0.308221
vn -0.586270 0.071763 0.806931
vn -0.586270 0.071763 0.806931
vn -0.586269 0.071763 0.806931
vn -0.586270 0.071763 0.806931
vn 0.000000 0.071763 0.997422
vn 0.000000 0.071763 0.997422
vn 0.000000 0.071763 0.997422
vn 0.000000 0.071763 0.997422
vn 0.586270 0.071763 0.806931
vn 0.586270 0.071763 0.806931
vn 0.586270 0.071763 0.806931
vn 0.586270 0.071763 0.806931
vn 0.948604 0.071763 0.308220
vn 0.948604 0.071763 0.308220
vn 0.948604 0.071763 0.308220
vn 0.948604 0.071763 0.308220
vn 0.948605 0.071763 -0.308220
vn 0.948605 0.071763 -0.308220
vn 0.948604 0.071763 -0.308220
vn 0.948604 0.071763 -0.308220
vn 0.948604 0.071763 -0.308221
vn 0.948604 0.071763 -0.308221
vn 0.948604 0.071763 0.308221
vn 0.948604 0.071763 0.308221
vn 0.586269 0.071763 0.806932
vn 0.586269 0.071763 0.806932
vn 0.000000 0.071763 0.997422
vn 0.000000 0.071763 0.997422
vn -0.586269 0.071763 0.806932
vn -0.586269 0.071763 0.806932
vn -0.948604 0.071763 0.308221
vn -0.948604 0.071763 0.308221
vn -0.948604 0.071763 -0.308221
vn -0.948604 0.071763 -0.308221
vn -0.586269 0.071763 -0.806932
vn -0.586269 0.071763 -0.806932
vn 0.000000 0.071763 -0.997422
vn 0.000000 0.071763 -0.997422
vn 0.586269 0.071763 -0.806932
vn 0.586269 0.071763 -0.806932
vn 0.586270 0.071763 -0.806931
vn 0.586270 0.071763 -0.806931
vn -0.000000 0.071763 -0.997422
vn -0.000000 0.071763 -0.997422
vn -0.586270 0.071763 -0.806931
vn -0.586270 0.071763 -0.806931
vn -0.948605 0.071763 -0.308220
vn -0.948605 0.071763 -0.308220
vn -0.948604 0.071763 0.308220
vn -0.948604 0.071763 0.308220
vn -0.586270 0.071763 0.806931
vn -0.586270 0.071763 0.806931
vn 0.000000 0.071763 0.997422
vn 0.000000 0.071763 0.997422
vn 0.586270 0.071763 0.806931
vn 0.586270 0.071763 0.806931
vn 0.948604 0.071763 0.308220
vn 0.948604 0.071763 0.308220
vn 0.948605 0.071763 -0.308220
vn 0.948605 0.071763 -0.308220
vn 0.586270 0.071763 -0.806931
vn 0.586270 0.071763 -0.806931
vn -0.000000 0.071763 -0.997422
vn -0.000000 0.071763 -0.997422
vn -0.586270 0.071763 -0.806931
vn -0.586270 0.071763 -0.806931
vn -0.948605 0.071763 -0.308220
vn -0.948605 0.071763 -0.308220
vn -0.948604 0.071763 0.308220
vn -0.948604 0.071763 0.308220
vn -0.586269 0.071763 0.806931
vn -0.586269 0.071763 0.806931
vn 0.000000 0.071763 0.997422
vn 0.000000 0.071763 0.997422
vn 0.586270 0.071763 0.806931
vn 0.586270 0.071763 0.806931
vn 0.948604 0.071763 0.308220
vn 0.948604 0.071763 0.308220
vn 0.948605 0.071763 -0.308220
vn 0.948605 0.071763 -0.308220
vn 0.948604 0.071763 -0.308220
vn 0.948604 0.071763 -0.308220
vn 0.948604 0.071763 0.308221
vn 0.948604 0.071763 0.308221
vn 0.586270 0.071763 0.806931
vn 0.586270 0.071763 0.806931
vn 0.000000 0.071763 0.997422
vn 0.000000 0.071763 0.997422
vn -0.586269 0.071763 0.806931
vn -0.586269 0.071763 0.806931
vn -0.948604 0.071763 0.308221
vn -0.948604 0.071763 0.308221
vn -0.948604 0.071763 -0.308220
vn -0.948604 0.071763 -0.308220
vn -0.586270 0.071763 -0.806931
vn -0.586270 0.071763 -0.806931
vn 0.000000 0.071763 -0.997422
vn 0.000000 0.071763 -0.997422
vn 0.586269 0.071763 -0.806931
vn 0.586269 0.071763 -0.806931
vn 0.948604 0.071763 -0.308221
vn 0.948604 0.071763 -0.308221
vn 0.948604 0.071763 0.308221
vn 0.948604 0.071763 0.308221
vn 0.586269 0.071763 0.806932
vn 0.586269 0.071763 0.806932
vn 0.000000 0.071763 0.997422
vn 0.000000 0.071763 0.997422
vn -0.586269 0.071763 0.806932
vn -0.586269 0.071763 0.806932
vn -0.948604 0.071763 0.308221
vn -0.948604 0.071763 0.308221
vn -0.948604 0.071763 -0.308221
vn -0.948604 0.071763 -0.308221
vn -0.586269 0.071763 -0.806932
vn -0.586269 0.071763 -0.806932
vn 0.000000 0.071763 -0.997422
vn 0.000000 0.071763 -0.997422
vn 0.586269 0.071763 -0.806932
vn 0.586269 0.071763 -0.806932
s 1
f 73/101/1 74/102/2 42/66/3 33/57/4
s 2
f 74/102/5 75/103/6 41/65/7 42/66/8
s 3
f 75/103/9 76/104/10 40/64/11 41/65/12
s 4
f 76/104/13 77/105/14 39/63/15 40/64/16
s 5
f 77/105/17 78/106/18 38/62/19 39/63/20
s 6
f 78/106/21 79/107/22 37/61/23 38/62/24
s 7
f 79/107/25 80/108/26 36/60/27 37/61/28
s 8
f 80/108/29 81/109/30 35/59/31 36/60/32
s 9
f 81/109/33 82/110/34 34/58/35 35/59/36
s 10
f 82/110/37 73/100/38 33/56/39 34/58/40
s 11
f 2/2/41 1/1/42 21/43/43
f 3/3/44 2/2/41 21/43/43
f 4/4/45 3/3/44 21/43/43
f 5/5/46 4/4/45 21/43/43
f 6/6/47 5/5/46 21/43/43
f 7/7/48 6/6/47 21/43/43
f 8/8/49 7/7/48 21/43/43
f 9/9/50 8/8/49 21/43/43
f 10/10/51 9/9/50 21/43/43
f 1/1/42 10/10/51 21/43/43
s 12
f 11/41/52 12/40/53 22/44/54
f 12/40/53 13/39/55 22/44/54
f 13/39/55 14/38/56 22/44/54
f 14/38/56 15/37/57 22/44/54
f 15/37/57 16/36/58 22/44/54
f 16/36/58 17/35/59 22/44/54
f 17/35/59 18/34/60 22/44/54
f 18/34/60 19/33/61 22/44/54
f 19/33/61 20/42/62 22/44/54
f 20/42/62 11/41/52 22/44/54
s 1
f 43/68/63 44/69/64 72/99/65 63/90/66
s 2
f 44/69/67 45/70/68 71/98/69 72/99/70
s 3
f 45/70/71 46/71/72 70/97/73 71/98/74
s 4
f 46/71/75 47/72/76 69/96/77 70/97/78
s 5
f 47/72/79 48/73/80 68/95/81 69/96/82
s 6
f 48/73/83 49/74/84 67/94/85 68/95/86
s 7
f 49/74/87 50/75/88 66/93/89 67/94/90
s 8
f 50/75/91 51/76/92 65/92/93 66/93/94
s 9
f 51/76/95 52/77/96 64/91/97 65/92/98
s 10
f 52/77/99 43/67/100 63/89/101 64/91/102
f 34/58/40 33/56/39 83/111/103 84/113/104
s 9
f 35/59/36 34/58/35 84/113/105 85/114/106
s 8
f 36/60/32 35/59/31 85/114/107 86/115/108
s 7
f 37/61/28 36/60/27 86/115/109 87/116/110
s 6
f 38/62/24 37/61/23 87/116/111 88/117/112
s 5
f 39/63/20 38/62/19 88/117/113 89/118/114
s 4
f 40/64/16 39/63/15 89/118/115 90/119/116
s 3
f 41/65/12 40/64/11 90/119/117 91/120/118
s 2
f 42/66/8 41/65/7 91/120/119 92/121/120
s 1
f 33/57/4 42/66/3 92/121/121 83/112/122
f 53/79/123 54/80/124 44/69/64 43/68/63
s 2
f 54/80/125 55/81/126 45/70/68 44/69/67
s 3
f 55/81/127 56/82/128 46/71/72 45/70/71
s 4
f 56/82/129 57/83/130 47/72/76 46/71/75
s 5
f 57/83/131 58/84/132 48/73/80 47/72/79
s 6
f 58/84/133 59/85/134 49/74/84 48/73/83
s 7
f 59/85/135 60/86/136 50/75/88 49/74/87
s 8
f 60/86/137 61/87/138 51/76/92 50/75/91
s 9
f 61/87/139 62/88/140 52/77/96 51/76/95
s 10
f 62/88/141 53/78/142 43/67/100 52/77/99
s 1
f 1/11/143 2/12/144 54/80/124 53/79/123
s 2
f 2/12/145 3/13/146 55/81/126 54/80/125
s 3
f 3/13/147 4/14/148 56/82/128 55/81/127
s 4
f 4/14/149 5/15/150 57/83/130 56/82/129
s 5
f 5/15/151 6/16/152 58/84/132 57/83/131
s 6
f 6/16/153 7/17/154 59/85/134 58/84/133
s 7
f 7/17/155 8/18/156 60/86/136 59/85/135
s 8
f 8/18/157 9/19/158 61/87/138 60/86/137
s 9
f 9/19/159 10/20/160 62/88/140 61/87/139
s 10
f 10/20/161 1/21/162 53/78/142 62/88/141
f 64/91/102 63/89/101 23/45/163 32/55/164
s 9
f 65/92/98 64/91/97 32/55/165 31/54/166
s 8
f 66/93/94 65/92/93 31/54/167 30/53/168
s 7
f 67/94/90 66/93/89 30/53/169 29/52/170
s 6
f 68/95/86 67/94/85 29/52/171 28/51/172
s 5
f 69/96/82 68/95/81 28/51/173 27/50/174
s 4
f 70/97/78 69/96/77 27/50/175 26/49/176
s 3
f 71/98/74 70/97/73 26/49/177 25/48/178
s 2
f 72/99/70 71/98/69 25/48/179 24/47/180
s 1
f 63/90/66 72/99/65 24/47/181 23/46/182
f 23/46/182 24/47/181 74/102/2 73/101/1
s 2
f 24/47/180 25/48/179 75/103/6 74/102/5
s 3
f 25/48/178 26/49/177 76/104/10 75/103/9
s 4
f 26/49/176 27/50/175 77/105/14 76/104/13
s 5
f 27/50/174 28/51/173 78/106/18 77/105/17
s 6
f 28/51/172 29/52/171 79/107/22 78/106/21
s 7
f 29/52/170 30/53/169 80/108/26 79/107/25
s 8
f 30/53/168 31/54/167 81/109/30 80/108/29
s 9
f 31/54/166 32/55/165 82/110/34 81/109/33
s 10
f 32/55/164 23/45/163 73/100/38 82/110/37
f 84/113/104 83/111/103 11/32/183 20/31/184
s 9
f 85/114/106 84/113/105 20/31/185 19/30/186
s 8
f 86/115/108 85/114/107 19/30/187 18/29/188
s 7
f 87/116/110 86/115/109 18/29/189 17/28/190
s 6
f 88/117/112 87/116/111 17/28/191 16/27/192
s 5
f 89/118/114 88/117/113 16/27/193 15/26/194
s 4
f 90/119/116 89/118/115 15/26/195 14/25/196
s 3
f 91/120/118 90/119/117 14/25/197 13/24/198
s 2
f 92/121/120 91/120/119 13/24/199 12/23/200
s 1
f 83/112/122 92/121/121 12/23/201 11/22/202
